<?xml version="1.0" encoding="UTF-8"?>
<svg width="70px" height="57px" viewBox="0 0 70 57" version="1.1" xmlns="http://www.w3.org/2000/svg" xmlns:xlink="http://www.w3.org/1999/xlink">
    <title>icon_homepage_open</title>
    <defs>
        <polygon id="path-1" points="0 57 70 57 70 0 0 0"></polygon>
    </defs>
    <g id="1.首页" stroke="none" stroke-width="1" fill="none" fill-rule="evenodd">
        <g id="2.首页-hover1(开放)" transform="translate(-119.000000, -552.000000)">
            <g id="编组-3" transform="translate(96.000000, 517.000000)">
                <g id="icon_homepage_open" transform="translate(23.000000, 35.000000)">
                    <path d="M54.5235409,48.5424415 L25.1645864,48.5424415 C21.69545,48.5424415 18.8734955,45.6971735 18.8734955,42.199377 C18.8734955,38.7015804 21.69545,35.8563124 25.1645864,35.8563124 L25.1645864,40.0849152 C24.0095864,40.0849152 23.0677682,41.0325893 23.0677682,42.199377 C23.0677682,43.3658438 24.0095864,44.3138388 25.1645864,44.3138388 L54.5235409,44.3138388 L54.5235409,48.5424415 Z" id="Fill-1" fill="#E5E5E4"></path>
                    <mask id="mask-2" fill="white">
                        <use xlink:href="#path-1"></use>
                    </mask>
                    <g id="Clip-4"></g>
                    <polygon id="Fill-3" fill="#EFE4DF" mask="url(#mask-2)" points="41.9411364 48.5424736 54.5233182 48.5424736 54.5233182 44.3138708 41.9411364 44.3138708"></polygon>
                    <polygon id="Fill-5" fill="#FFD798" mask="url(#mask-2)" points="44.0382409 18.0213677 41.9411045 23.2124019 39.8442864 18.0213677 27.2617864 18.0213677 27.2617864 36.3637062 56.6207409 36.3637062 56.6207409 18.0213677"></polygon>
                    <polygon id="Fill-6" fill="#E5B872" mask="url(#mask-2)" points="56.6206136 36.363642 56.6206136 18.0213035 44.0381136 18.0213035 41.9412955 23.2126585 41.9412955 36.363642"></polygon>
                    <polygon id="Fill-7" fill="#E49F46" mask="url(#mask-2)" points="39.844 25.807919 44.0379545 25.807919 44.0379545 18.0212073 39.844 18.0212073"></polygon>
                    <polygon id="Fill-8" fill="#D59046" mask="url(#mask-2)" points="41.9411364 25.807919 44.0382727 25.807919 44.0382727 18.0212073 41.9411364 18.0212073"></polygon>
                    <polygon id="Fill-9" fill="#FFD798" mask="url(#mask-2)" points="44.0382409 -9.62431406e-05 41.9411045 5.19125876 39.8442864 -9.62431406e-05 27.2617864 -9.62431406e-05 27.2617864 18.3422423 56.6207409 18.3422423 56.6207409 -9.62431406e-05"></polygon>
                    <polygon id="Fill-10" fill="#E5B872" mask="url(#mask-2)" points="56.6206136 18.3421781 56.6206136 -0.000160405234 44.0381136 -0.000160405234 41.9412955 5.1911946 41.9412955 18.3421781"></polygon>
                    <polygon id="Fill-11" fill="#E49F46" mask="url(#mask-2)" points="39.844 7.78671169 44.0379545 7.78671169 44.0379545 0 39.844 0"></polygon>
                    <polygon id="Fill-12" fill="#D59046" mask="url(#mask-2)" points="41.9411364 7.78671169 44.0382727 7.78671169 44.0382727 0 41.9411364 0"></polygon>
                    <polygon id="Fill-13" fill="#E5E5E4" mask="url(#mask-2)" points="17.1957545 10.4835728 14.9493909 14.7121756 12.7084364 10.4835728 11.1146636 6.25464922 -6.36363636e-05 6.25464922 -6.36363636e-05 2.02604643 14.0502091 2.02604643"></polygon>
                    <path d="M29.3588273,57 C25.8896909,57 23.0677364,54.154732 23.0677364,50.6569354 C23.0677364,47.1591389 25.8896909,44.3138708 29.3588273,44.3138708 C32.8279636,44.3138708 35.6499182,47.1591389 35.6499182,50.6569354 C35.6499182,54.154732 32.8279636,57 29.3588273,57" id="Fill-14" fill="#3F1E1E" mask="url(#mask-2)"></path>
                    <path d="M29.3588273,48.5424415 C30.5170091,48.5424415 31.4559636,49.4891532 31.4559636,50.6569033 C31.4559636,51.8246534 30.5170091,52.7713651 29.3588273,52.7713651 C28.2006455,52.7713651 27.2616909,51.8246534 27.2616909,50.6569033 C27.2616909,49.4891532 28.2006455,48.5424415 29.3588273,48.5424415" id="Fill-15" fill="#FFFFFF" mask="url(#mask-2)"></path>
                    <path d="M54.5235409,57 C51.0544045,57 48.23245,54.154732 48.23245,50.6569354 C48.23245,47.1591389 51.0544045,44.3138708 54.5235409,44.3138708 C57.9926773,44.3138708 60.8146318,47.1591389 60.8146318,50.6569354 C60.8146318,54.154732 57.9926773,57 54.5235409,57" id="Fill-16" fill="#3F1E1E" mask="url(#mask-2)"></path>
                    <path d="M54.5235409,48.5424415 C55.6817227,48.5424415 56.6206773,49.4891532 56.6206773,50.6569033 C56.6206773,51.8246534 55.6817227,52.7713651 54.5235409,52.7713651 C53.3653591,52.7713651 52.4264045,51.8246534 52.4264045,50.6569033 C52.4264045,49.4891532 53.3653591,48.5424415 54.5235409,48.5424415" id="Fill-17" fill="#FFFFFF" mask="url(#mask-2)"></path>
                    <path d="M55.6140455,18.9410992 L56.2850909,14.7121756 L64.2119545,14.7121756 L62.7858636,18.9410992 L55.6140455,18.9410992 Z M60.018,27.3986256 L54.1879545,27.3986256 L54.9013182,23.169702 L61.4020909,23.169702 L60.018,27.3986256 Z M57.2078182,35.856152 L52.8038636,35.856152 L53.5169091,31.6272284 L58.5915909,31.6272284 L57.2078182,35.856152 Z M51.3360909,18.9410992 L44.0382727,18.9410992 L44.0382727,14.7121756 L52.0488182,14.7121756 L51.3360909,18.9410992 Z M49.952,27.3986256 L44.0382727,27.3986256 L44.0382727,23.169702 L50.6650455,23.169702 L49.952,27.3986256 Z M48.5679091,35.856152 L44.0382727,35.856152 L44.0382727,31.6272284 L49.2389545,31.6272284 L48.5679091,35.856152 Z M39.844,18.9410992 L32.5465,18.9410992 L31.8334545,14.7121756 L39.844,14.7121756 L39.844,18.9410992 Z M39.844,27.3986256 L33.9305909,27.3986256 L33.2175455,23.169702 L39.8443182,23.169702 L39.8443182,27.3986256 L39.844,27.3986256 Z M39.844,35.856152 L35.3143636,35.856152 L34.6433182,31.6272284 L39.844,31.6272284 L39.844,35.856152 Z M26.6324545,35.856152 L25.0386818,31.6272284 L30.3653636,31.6272284 L31.0784091,35.856152 L26.6324545,35.856152 Z M21.8931364,23.169702 L28.9812727,23.169702 L29.6943182,27.3986256 L23.4869091,27.3986256 L21.8931364,23.169702 Z M18.7475909,14.7121756 L27.5975,14.7121756 L28.2682273,18.9410992 L20.3413636,18.9410992 L18.7475909,14.7121756 Z M12.7085,10.4835728 L23.1935455,38.7315762 L23.6969091,40.0847547 L60.2276818,40.0847547 L70,10.4835728 L12.7085,10.4835728 Z" id="Fill-18" fill="#EB4C36" mask="url(#mask-2)"></path>
                    <path d="M49.2389864,31.6273888 L48.5679409,35.8563124 L44.0383045,35.8563124 L44.0383045,31.6273888 L49.2389864,31.6273888 Z M44.0383045,23.1698624 L50.6650773,23.1698624 L49.9520318,27.398786 L44.0383045,27.398786 L44.0383045,23.1698624 Z M44.0383045,14.712336 L52.04885,14.712336 L51.3361227,18.9412596 L44.0383045,18.9412596 L44.0383045,14.712336 Z M53.5169409,31.6273888 L58.5916227,31.6273888 L57.20785,35.8563124 L52.8038955,35.8563124 L53.5169409,31.6273888 Z M54.9010318,23.1698624 L61.4021227,23.1698624 L60.0177136,27.398786 L54.1879864,27.398786 L54.9010318,23.1698624 Z M56.2851227,14.712336 L64.2119864,14.712336 L62.7855773,18.9412596 L55.6140773,18.9412596 L56.2851227,14.712336 Z M41.9411682,40.0849152 L60.2277136,40.0849152 L70.0000318,10.4837332 L41.9411682,10.4837332 L41.9411682,40.0849152 Z" id="Fill-19" fill="#D23827" mask="url(#mask-2)"></path>
                </g>
            </g>
        </g>
    </g>
</svg>