<?xml version="1.0" encoding="UTF-8"?>
<svg width="80px" height="85px" viewBox="0 0 80 85" version="1.1" xmlns="http://www.w3.org/2000/svg" xmlns:xlink="http://www.w3.org/1999/xlink">
    <title>icon_homepage_growup</title>
    <defs>
        <path d="M35.4992,0 L35.4992,2.57114714 C17.548,4.08401107 2.7472,17.8320719 0,35.4428664 L0,35.4428664 L5.392,35.4428664 C8.0512,20.7772259 20.4824,9.38665129 35.4992,7.922292 L35.4992,7.922292 L35.4992,10.4457362 L41.5344,5.22286811 L35.4992,0 Z" id="path-1"></path>
        <linearGradient x1="0%" y1="50.0000867%" x2="99.9999398%" y2="50.0000867%" id="linearGradient-3">
            <stop stop-color="#4D4D4D" offset="0%"></stop>
            <stop stop-color="#313131" offset="100%"></stop>
        </linearGradient>
        <path d="M0,7.84933459 L2.1824,6.58701119 C12.4616,21.426627 31.778,27.3614311 48.3776,20.9367702 L48.3776,20.9367702 L45.682,16.2570739 C31.6716,21.2851217 15.5768,16.2282117 6.8064,3.91123832 L6.8064,3.91123832 L9.026,2.62646649 L1.4964,0 L0,7.84933459 Z" id="path-4"></path>
        <linearGradient x1="8.88841117e-05%" y1="50.0003782%" x2="100.000291%" y2="50.0003782%" id="linearGradient-6">
            <stop stop-color="#4D4D4D" offset="0%"></stop>
            <stop stop-color="#313131" offset="100%"></stop>
        </linearGradient>
        <path d="M0,4.6800971 C11.3692,14.3401382 15.032,30.7888255 8.7312,44.5709599 L8.7312,44.5709599 L6.5504,43.3086365 L8.0448,51.1571693 L15.5768,48.5315046 L13.3548,47.245931 C15.8824,41.8971913 17.1,36.1904794 17.1092,30.5422937 L17.1092,30.5422937 L17.1092,30.4140169 C17.0896,18.8390444 11.9956,7.51581504 2.6968,0 L2.6968,0 L0,4.6800971 Z" id="path-7"></path>
        <linearGradient x1="0.00175975499%" y1="50.0000314%" x2="100.000009%" y2="50.0000314%" id="linearGradient-9">
            <stop stop-color="#4D4D4D" offset="0%"></stop>
            <stop stop-color="#313131" offset="100%"></stop>
        </linearGradient>
        <path d="M5.578,0 C2.4972,0 0,2.50259925 0,5.59046117 L0,5.59046117 L0,39.6764001 C0,42.7638611 2.4972,45.2664604 5.578,45.2664604 L5.578,45.2664604 L34.6424,45.2664604 C37.7232,45.2664604 40.2208,42.7638611 40.2208,39.6764001 L40.2208,39.6764001 L40.2208,5.59046117 C40.2208,2.50259925 37.7232,0 34.6424,0 L34.6424,0 L5.578,0 Z" id="path-10"></path>
        <linearGradient x1="40.0177291%" y1="38.7414083%" x2="131.838887%" y2="142.304875%" id="linearGradient-12">
            <stop stop-color="#FBC144" offset="0%"></stop>
            <stop stop-color="#D18028" offset="100%"></stop>
        </linearGradient>
        <path d="M5.578,0 C2.4972,0 0,2.50259925 0,5.59046117 L0,5.59046117 L0,16.7689783 L40.2208,16.7689783 L40.2208,5.59046117 C40.2208,2.50259925 37.7232,0 34.6424,0 L34.6424,0 L5.578,0 Z" id="path-13"></path>
        <linearGradient x1="49.9997633%" y1="61.6570214%" x2="49.9997633%" y2="119.349749%" id="linearGradient-15">
            <stop stop-color="#4D4D4D" offset="0%"></stop>
            <stop stop-color="#313131" offset="100%"></stop>
        </linearGradient>
        <path d="M2.2632,0 C1.0132,0 0,1.01539066 0,2.26809331 L0,2.26809331 L0,7.56592315 C0,8.8186258 1.0132,9.83441732 2.2632,9.83441732 L2.2632,9.83441732 L29.7124,9.83441732 C30.9624,9.83441732 31.976,8.8186258 31.9756001,7.56592315 L31.9756001,7.56592315 L31.9756001,2.26809331 C31.9756001,1.01539066 30.9624,0 29.712,0 L29.712,0 L2.2632,0 Z" id="path-16"></path>
        <linearGradient x1="49.9999173%" y1="40.0621921%" x2="49.9999173%" y2="108.120556%" id="linearGradient-18">
            <stop stop-color="#FFF0E9" offset="0%"></stop>
            <stop stop-color="#EFD8CA" offset="100%"></stop>
        </linearGradient>
        <path d="M1.1696,0.103423131 L0.1964,1.04104601 C0.0744,1.12562849 0,1.2851727 0,1.42587627 L0,1.42587627 C0,1.62270091 0.1404,1.8291463 0.3368,1.8291463 L0.3368,1.8291463 C0.3932,1.8291463 0.4772,1.80148663 0.5428,1.73534393 L0.5428,1.73534393 L0.87,1.32325486 L0.87,6.53810567 C0.87,6.75377096 1.114,6.86641399 1.366,6.86641399 L1.366,6.86641399 C1.61,6.86641399 1.8624,6.75377096 1.8624,6.53810567 L1.8624,6.53810567 L1.8624,0.328308311 C1.8624,0.121862914 1.6284,0 1.4224,0 L1.4224,0 C1.31,0 1.2356,0.0376812957 1.1696,0.103423131" id="path-19"></path>
        <linearGradient x1="49.9964347%" y1="29.9351252%" x2="49.9964347%" y2="169.437362%" id="linearGradient-21">
            <stop stop-color="#4D4D4D" offset="0%"></stop>
            <stop stop-color="#313131" offset="100%"></stop>
        </linearGradient>
        <path d="M0.1312,1.6603822 C0.1312,2.08209202 0.3184,2.21357569 0.5804,2.21357569 L0.5804,2.21357569 C0.9084,2.21357569 1.1044,2.02597094 1.1044,1.83836619 L1.1044,1.83836619 C1.1044,1.20059022 1.526,0.909562341 2.05,0.909562341 L2.05,0.909562341 C2.7616,0.909562341 3.0612,1.43509616 3.0612,1.89448727 L3.0612,1.89448727 C3.0612,3.33920419 0,4.09924394 0,5.61892258 L0,5.61892258 L0,6.52848492 C0,6.72571042 0.2528,6.85719409 0.44,6.85719409 L0.44,6.85719409 L3.7724,6.85719409 C3.9404,6.85719409 4.1,6.64152881 4.1,6.40702287 L4.1,6.40702287 C4.1,6.17251693 3.9404,5.97529143 3.7724,5.97529143 L3.7724,5.97529143 L1.0208,5.97529143 L1.0208,5.61892258 C1.0208,4.53979441 4.0528,3.88317778 4.0528,1.86642673 L4.0528,1.86642673 C4.0528,0.741199104 3.1356,0 2.05,0 L2.05,0 C1.0296,0 0.1312,0.656616621 0.1312,1.6603822" id="path-22"></path>
        <linearGradient x1="50.0006898%" y1="29.8350731%" x2="50.0006898%" y2="169.524878%" id="linearGradient-24">
            <stop stop-color="#4D4D4D" offset="0%"></stop>
            <stop stop-color="#313131" offset="100%"></stop>
        </linearGradient>
        <path d="M0.1496,1.58542047 C0.1496,1.94178932 0.2248,2.04521246 0.6644,2.04521246 L0.6644,2.04521246 C1.0204,2.04521246 1.1328,1.88566825 1.1328,1.64154155 L1.1328,1.64154155 C1.1328,1.25711216 1.348,0.872682775 2.1064,0.872682775 L2.1064,0.872682775 C2.7144,0.872682775 3.0424,1.1540899 3.0424,1.83876706 L3.0424,1.83876706 C3.0424,2.69220832 2.6392,2.87059318 2.0688,2.87059318 L2.0688,2.87059318 C1.8348,2.87059318 1.7504,3.06741782 1.7504,3.27386322 L1.7504,3.27386322 C1.7504,3.47068786 1.8348,3.66791336 2.0688,3.66791336 L2.0688,3.66791336 C2.752,3.66791336 3.2108,3.93969973 3.2108,4.69011872 L3.2108,4.69011872 L3.2108,4.86810272 C3.2108,5.68466441 2.8456,6.03141251 2.0776,6.03181337 L2.0776,6.03181337 C1.3196,6.03181337 0.9732,5.62814247 0.9732,5.21565254 L0.9732,5.21565254 C0.9732,4.96190509 0.8704,4.84004218 0.4584,4.84004218 L0.4584,4.84004218 C0.1216,4.84004218 0,4.93384455 0,5.26255373 L0,5.26255373 C0,6.00335197 0.6084,6.91331517 2.0684,6.91331517 L2.0684,6.91331517 C3.2476,6.91331517 4.2024,6.36012168 4.2024,4.86810272 L4.2024,4.86810272 L4.2024,4.69011872 C4.2024,3.89279854 3.8,3.45224807 3.2476,3.23618192 L3.2476,3.23618192 C3.6972,3.02051663 3.9968,2.44848249 3.9968,1.67000296 L3.9968,1.67000296 C3.9968,0.431731442 3.2104,0 2.1152,0 L2.1152,0 C0.5708,0 0.1496,0.975705041 0.1496,1.58542047" id="path-25"></path>
        <linearGradient x1="50.000592%" y1="29.5928772%" x2="50.000592%" y2="168.148705%" id="linearGradient-27">
            <stop stop-color="#4D4D4D" offset="0%"></stop>
            <stop stop-color="#313131" offset="100%"></stop>
        </linearGradient>
        <path d="M2.3212,0.271786367 L0.056,4.74664067 C0.0188,4.81198164 0,4.88734423 0,4.95308606 L0,4.95308606 C0,5.17797124 0.1496,5.31867481 0.3464,5.31867481 L0.3464,5.31867481 L2.6488,5.31867481 L2.6488,6.52848492 C2.6488,6.74415021 2.8924,6.85679323 3.1448,6.85679323 L3.1448,6.85679323 C3.3884,6.85679323 3.6408,6.74415021 3.6408,6.52848492 L3.6408,6.52848492 L3.6408,5.31867481 L4.0996,5.31867481 C4.2772,5.31867481 4.4368,5.08376801 4.4368,4.85888283 L4.4368,4.85888283 C4.4368,4.62437689 4.3244,4.38987095 4.0996,4.38987095 L4.0996,4.38987095 L3.6408,4.38987095 L3.6408,3.09547836 C3.6408,2.86097242 3.3884,2.76717005 3.1448,2.76717005 L3.1448,2.76717005 C2.8924,2.76717005 2.6488,2.86097242 2.6488,3.09547836 L2.6488,3.09547836 L2.6488,4.38987095 L1.2728,4.38987095 L3.2012,0.534352843 C3.2292,0.478231764 3.2476,0.431731442 3.2476,0.384429389 L3.2476,0.384429389 C3.2476,0.150324318 2.9388,0 2.7516,0 L2.7516,0 C2.5928,0 2.424,0.0753625915 2.3212,0.271786367" id="path-28"></path>
        <linearGradient x1="49.9976488%" y1="29.8368173%" x2="49.9976488%" y2="169.534789%" id="linearGradient-30">
            <stop stop-color="#4D4D4D" offset="0%"></stop>
            <stop stop-color="#313131" offset="100%"></stop>
        </linearGradient>
        <path d="M1.92,0 C0.8596,0 0,0.861458559 0,1.92415127 L0,1.92415127 C0,2.47974995 0.2364,2.97882669 0.612,3.32998429 L0.612,3.32998429 L5.3428,8.07101285 C5.6932,8.44782581 6.1912,8.68433607 6.7456,8.68433607 L6.7456,8.68433607 L10.3488,8.68433607 C11.4092,8.68433607 12.2692,7.82287751 12.2692,6.7601848 L12.2692,6.7601848 C12.2692,6.20458612 12.0328,5.70550938 11.6572,5.35395091 L11.6572,5.35395091 L6.9264,0.613323218 C6.5756,0.23651026 6.078,0 5.5236,0 L5.5236,0 L1.92,0 Z" id="path-31"></path>
        <path d="M1.9204,0 C0.86,0 0,0.861458559 0,1.92415127 L0,1.92415127 C0,2.47974995 0.2364,2.97882669 0.612,3.32998429 L0.612,3.32998429 L5.3428,8.07101285 C5.6936,8.44782581 6.1916,8.68433607 6.7456,8.68433607 L6.7456,8.68433607 L10.3492,8.68433607 C11.4096,8.68433607 12.2692,7.82287751 12.2692,6.7601848 L12.2692,6.7601848 C12.2692,6.20458612 12.0328,5.70550938 11.6572,5.35395091 L11.6572,5.35395091 L6.9264,0.613323218 C6.5756,0.23651026 6.0776,0 5.5232,0 L5.5232,0 L1.9204,0 Z" id="path-33"></path>
        <path d="M1.92,0 C0.8596,0 0,0.861458559 0,1.92415127 L0,1.92415127 C0,2.98684398 0.8596,3.84870341 1.92,3.84870341 L1.92,3.84870341 L5.5236,3.84870341 C6.584,3.84870341 7.4436,2.98684398 7.4436,1.92415127 L7.4436,1.92415127 C7.4436,0.861458559 6.584,0 5.5236,0 L5.5236,0 L1.92,0 Z" id="path-35"></path>
        <linearGradient x1="50.0007883%" y1="61.6519352%" x2="50.0007883%" y2="119.351709%" id="linearGradient-37">
            <stop stop-color="#FFF0E9" offset="0%"></stop>
            <stop stop-color="#EFD8CA" offset="100%"></stop>
        </linearGradient>
        <path d="M1.9204,0 C0.86,0 0,0.861458559 0,1.92415127 L0,1.92415127 C0,2.98684398 0.86,3.84870341 1.9204,3.84870341 L1.9204,3.84870341 L5.5232,3.84870341 C6.584,3.84870341 7.4436,2.98684398 7.4436,1.92415127 L7.4436,1.92415127 C7.4436,0.861458559 6.584,0 5.5232,0 L5.5232,0 L1.9204,0 Z" id="path-38"></path>
        <path d="M1.9204,0 C1.3908,0 0.91,0.215665288 0.562,0.563215112 L0.562,0.563215112 C0.2152,0.91196753 0,1.39260448 0,1.92334954 L0,1.92334954 C0,1.99029397 0.0032,2.05563494 0.0104,2.12017418 L0.0104,2.12017418 C0.0148,2.1666745 0.0216,2.21157137 0.0292,2.25726996 L0.0292,2.25726996 C0.0332,2.28132185 0.0384,2.30577461 0.0432,2.3286239 L0.0432,2.3286239 C0.0504,2.36069309 0.0576,2.39316314 0.0664,2.42523233 L0.0664,2.42523233 C0.0744,2.45690065 0.0844,2.48776725 0.0932,2.51823298 L0.0932,2.51823298 C0.0948,2.5202373 0.0948,2.52184076 0.0956,2.52424595 L0.0956,2.52424595 C0.1056,2.55471168 0.1168,2.58357395 0.1276,2.61283708 L0.1276,2.61283708 C0.1388,2.64410454 0.152,2.6741694 0.1652,2.70343254 L0.1652,2.70343254 C0.178,2.73389826 0.192,2.7631614 0.2072,2.79242453 L0.2072,2.79242453 C0.2224,2.82048507 0.2372,2.84974821 0.2536,2.87780875 L0.2536,2.87780875 C0.35,3.04617198 0.4716,3.19850062 0.6124,3.33038516 L0.6124,3.33038516 L5.3432,8.07141372 C5.6932,8.44742495 6.192,8.68433607 6.7464,8.68433607 L6.7464,8.68433607 L10.3492,8.68433607 C10.8104,8.68433607 11.2348,8.51998148 11.5668,8.24779425 L11.5668,8.24779425 L11.5668,5.26335546 L6.9572,0.644189811 L6.926,0.612922353 C6.7512,0.425317604 6.5388,0.272187232 6.3016,0.165557182 L6.3016,0.165557182 C6.2712,0.151927777 6.2424,0.139100102 6.2112,0.127875887 L6.2112,0.127875887 C6.182,0.117052536 6.1528,0.10582832 6.1228,0.0958066987 L6.1228,0.0958066987 C6.1208,0.0946041042 6.1188,0.0946041042 6.1164,0.0938023745 L6.1164,0.0938023745 C6.0868,0.084582483 6.0552,0.0745608618 6.0244,0.0665435648 L6.0244,0.0665435648 C5.9924,0.0577245381 5.9596,0.0505089709 5.928,0.0432934036 L5.928,0.0432934036 C5.9044,0.0384830254 5.8804,0.0332717824 5.8564,0.0288622691 L5.8564,0.0288622691 C5.8112,0.021245837 5.766,0.0148319994 5.7196,0.0100216212 L5.7196,0.0100216212 C5.6552,0.00320691879 5.59,0 5.5232,0 L5.5232,0 L1.9204,0 Z" id="path-40"></path>
        <path d="M1.9204,0 C0.86,0 0,0.861458559 0,1.92415127 L0,1.92415127 C0,2.98684398 0.86,3.84870341 1.9204,3.84870341 L1.9204,3.84870341 L5.5236,3.84870341 C6.584,3.84870341 7.444,2.98684398 7.444,1.92415127 L7.444,1.92415127 C7.444,0.861458559 6.584,0 5.5236,0 L5.5236,0 L1.9204,0 Z" id="path-42"></path>
        <linearGradient x1="49.9981934%" y1="61.6519352%" x2="49.9981934%" y2="119.351709%" id="linearGradient-44">
            <stop stop-color="#FFF0E9" offset="0%"></stop>
            <stop stop-color="#EFD8CA" offset="100%"></stop>
        </linearGradient>
        <path d="M1.92,0 C0.8596,0 0,0.861458559 0,1.92415127 L0,1.92415127 C0,2.47974995 0.2364,2.97882669 0.612,3.33038516 L0.612,3.33038516 L5.3428,8.07101285 C5.6932,8.44782581 6.1912,8.68433607 6.7456,8.68433607 L6.7456,8.68433607 L10.3488,8.68433607 C11.4092,8.68433607 12.2692,7.82287751 12.2692,6.7601848 L12.2692,6.7601848 C12.2692,6.20458612 12.0328,5.70550938 11.6572,5.35475264 L11.6572,5.35475264 L6.9264,0.613323218 C6.5756,0.23651026 6.078,0 5.5236,0 L5.5236,0 L1.92,0 Z" id="path-45"></path>
        <path d="M1.9204,0 C0.86,0 0,0.861458559 0,1.92415127 L0,1.92415127 C0,2.47974995 0.2364,2.97882669 0.612,3.33038516 L0.612,3.33038516 L5.3428,8.07101285 C5.6936,8.44782581 6.1916,8.68433607 6.7456,8.68433607 L6.7456,8.68433607 L10.3492,8.68433607 C11.4096,8.68433607 12.2692,7.82287751 12.2692,6.7601848 L12.2692,6.7601848 C12.2692,6.20458612 12.0328,5.70550938 11.6572,5.35475264 L11.6572,5.35475264 L6.9264,0.613323218 C6.5756,0.23651026 6.0776,0 5.5232,0 L5.5232,0 L1.9204,0 Z" id="path-47"></path>
        <path d="M1.92,0 C0.8596,0 0,0.861458559 0,1.92415127 L0,1.92415127 C0,2.98724485 0.8596,3.84870341 1.92,3.84870341 L1.92,3.84870341 L5.5236,3.84870341 C6.584,3.84870341 7.4436,2.98724485 7.4436,1.92415127 L7.4436,1.92415127 C7.4436,0.861458559 6.584,0 5.5236,0 L5.5236,0 L1.92,0 Z" id="path-49"></path>
        <linearGradient x1="50.0007883%" y1="61.6575805%" x2="50.0007883%" y2="119.357354%" id="linearGradient-51">
            <stop stop-color="#FFF0E9" offset="0%"></stop>
            <stop stop-color="#EFD8CA" offset="100%"></stop>
        </linearGradient>
        <path d="M1.9204,0 C0.86,0 0,0.861458559 0,1.92415127 L0,1.92415127 C0,2.98724485 0.86,3.84870341 1.9204,3.84870341 L1.9204,3.84870341 L5.5232,3.84870341 C6.584,3.84870341 7.4436,2.98724485 7.4436,1.92415127 L7.4436,1.92415127 C7.4436,0.861458559 6.584,0 5.5232,0 L5.5232,0 L1.9204,0 Z" id="path-52"></path>
        <path d="M1.9204,0 C1.3908,0 0.91,0.215665288 0.562,0.563215112 L0.562,0.563215112 C0.2152,0.91196753 0,1.39340621 0,1.92455214 L0,1.92455214 C0,1.9910957 0.0032,2.05683754 0.0104,2.12137678 L0.0104,2.12137678 C0.014,2.16226499 0.0192,2.20275234 0.0272,2.24323969 L0.0272,2.24323969 C0.0312,2.27250282 0.0372,2.30056336 0.0432,2.32902477 L0.0432,2.32902477 C0.0504,2.36109396 0.0576,2.39436574 0.0664,2.4256332 L0.0664,2.4256332 C0.0752,2.45770238 0.0844,2.48896984 0.0944,2.5202373 L0.0944,2.5202373 C0.1044,2.55150476 0.1156,2.58277222 0.1276,2.61283708 L0.1276,2.61283708 C0.1388,2.64410454 0.152,2.67376854 0.1652,2.70343254 L0.1652,2.70343254 C0.2716,2.94154626 0.4248,3.15520722 0.6124,3.33038516 L0.6124,3.33038516 L0.6428,3.36085089 L5.3432,8.07141372 C5.6932,8.44742495 6.192,8.68433607 6.7464,8.68433607 L6.7464,8.68433607 L10.3492,8.68433607 C10.8104,8.68433607 11.2348,8.51998148 11.5668,8.24779425 L11.5668,8.24779425 L11.5668,5.26335546 L8.3016,1.9922983 L6.9632,0.651004513 L6.926,0.613724083 C6.7512,0.425317604 6.5388,0.271786367 6.3016,0.165156317 L6.3016,0.165156317 C6.2712,0.151927777 6.2424,0.139100102 6.2112,0.127875887 L6.2112,0.127875887 C6.182,0.117052536 6.1528,0.10582832 6.1228,0.0958066987 L6.1228,0.0958066987 C6.1208,0.0946041042 6.1188,0.0946041042 6.1164,0.0938023745 L6.1164,0.0938023745 C6.0868,0.084582483 6.0552,0.0745608618 6.0244,0.0665435648 L6.0244,0.0665435648 C5.9924,0.0577245381 5.9596,0.0505089709 5.928,0.0436942685 L5.928,0.0436942685 C5.9044,0.0384830254 5.8804,0.0332717824 5.8564,0.0292631339 L5.8564,0.0292631339 C5.8112,0.021245837 5.766,0.0148319994 5.7196,0.0100216212 L5.7196,0.0100216212 C5.6552,0.00320691879 5.59,0 5.5232,0 L5.5232,0 L1.9204,0 Z" id="path-54"></path>
        <path d="M1.9204,0 C0.86,0 0,0.861458559 0,1.92415127 L0,1.92415127 C0,2.98724485 0.86,3.84870341 1.9204,3.84870341 L1.9204,3.84870341 L5.5236,3.84870341 C6.584,3.84870341 7.444,2.98724485 7.444,1.92415127 L7.444,1.92415127 C7.444,0.861458559 6.584,0 5.5236,0 L5.5236,0 L1.9204,0 Z" id="path-56"></path>
        <linearGradient x1="49.9981934%" y1="61.6575805%" x2="49.9981934%" y2="119.357354%" id="linearGradient-58">
            <stop stop-color="#FFF0E9" offset="0%"></stop>
            <stop stop-color="#EFD8CA" offset="100%"></stop>
        </linearGradient>
        <path d="M1.92,0 C0.8596,0 0,0.861458559 0,1.92375041 L0,1.92375041 C0,2.47934909 0.2364,2.97882669 0.612,3.32998429 L0.612,3.32998429 L5.3428,8.07141372 C5.6932,8.44782581 6.1912,8.68473694 6.7456,8.68473694 L6.7456,8.68473694 L10.3488,8.68473694 C11.4092,8.68473694 12.2692,7.82287751 12.2692,6.7601848 L12.2692,6.7601848 C12.2692,6.20458612 12.0328,5.70510852 11.6572,5.35435178 L11.6572,5.35435178 L6.9264,0.613323218 C6.5756,0.23651026 6.078,0 5.5236,0 L5.5236,0 L1.92,0 Z" id="path-59"></path>
        <path d="M1.9204,0 C0.86,0 0,0.861458559 0,1.92375041 L0,1.92375041 C0,2.47934909 0.2364,2.97882669 0.612,3.32998429 L0.612,3.32998429 L5.3428,8.07141372 C5.6936,8.44782581 6.1916,8.68473694 6.7456,8.68473694 L6.7456,8.68473694 L10.3492,8.68473694 C11.4096,8.68473694 12.2692,7.82287751 12.2692,6.7601848 L12.2692,6.7601848 C12.2692,6.20458612 12.0328,5.70510852 11.6572,5.35435178 L11.6572,5.35435178 L6.9264,0.613323218 C6.5756,0.23651026 6.0776,0 5.5232,0 L5.5232,0 L1.9204,0 Z" id="path-61"></path>
        <path d="M1.92,0 C0.8596,0 0,0.861458559 0,1.92375041 L0,1.92375041 C0,2.98684398 0.8596,3.84830254 1.92,3.84830254 L1.92,3.84830254 L5.5236,3.84830254 C6.584,3.84830254 7.4436,2.98684398 7.4436,1.92375041 L7.4436,1.92375041 C7.4436,0.861458559 6.584,0 5.5236,0 L5.5236,0 L1.92,0 Z" id="path-63"></path>
        <linearGradient x1="50.0007883%" y1="61.6593104%" x2="50.0007883%" y2="119.36508%" id="linearGradient-65">
            <stop stop-color="#FFF0E9" offset="0%"></stop>
            <stop stop-color="#EFD8CA" offset="100%"></stop>
        </linearGradient>
        <path d="M1.9204,0 C0.86,0 0,0.861458559 0,1.92375041 L0,1.92375041 C0,2.98684398 0.86,3.84830254 1.9204,3.84830254 L1.9204,3.84830254 L5.5232,3.84830254 C6.584,3.84830254 7.4436,2.98684398 7.4436,1.92375041 L7.4436,1.92375041 C7.4436,0.861458559 6.584,0 5.5232,0 L5.5232,0 L1.9204,0 Z" id="path-66"></path>
        <path d="M1.9204,0 C0.86,0 0,0.861458559 0,1.92375041 L0,1.92375041 C0,2.98684398 0.86,3.84830254 1.9204,3.84830254 L1.9204,3.84830254 L5.5236,3.84830254 C6.584,3.84830254 7.444,2.98684398 7.444,1.92375041 L7.444,1.92375041 C7.444,0.861458559 6.584,0 5.5236,0 L5.5236,0 L1.9204,0 Z" id="path-68"></path>
        <linearGradient x1="49.9981934%" y1="61.6593104%" x2="49.9981934%" y2="119.36508%" id="linearGradient-70">
            <stop stop-color="#FFF0E9" offset="0%"></stop>
            <stop stop-color="#EFD8CA" offset="100%"></stop>
        </linearGradient>
        <path d="M1.92,0 C0.8596,0 0,0.861458559 0,1.92415127 L0,1.92415127 C0,2.98724485 0.8596,3.84870341 1.92,3.84870341 L1.92,3.84870341 L5.5236,3.84870341 C6.584,3.84870341 7.4436,2.98724485 7.4436,1.92415127 L7.4436,1.92415127 C7.4436,0.861458559 6.584,0 5.5236,0 L5.5236,0 L1.92,0 Z" id="path-71"></path>
        <linearGradient x1="50.0007883%" y1="61.6585335%" x2="50.0007883%" y2="119.335243%" id="linearGradient-73">
            <stop stop-color="#FFF0E9" offset="0%"></stop>
            <stop stop-color="#EFD8CA" offset="100%"></stop>
        </linearGradient>
        <path d="M1.9204,0 C0.86,0 0,0.861458559 0,1.92415127 L0,1.92415127 C0,2.98724485 0.86,3.84870341 1.9204,3.84870341 L1.9204,3.84870341 L5.5232,3.84870341 C6.584,3.84870341 7.4436,2.98724485 7.4436,1.92415127 L7.4436,1.92415127 C7.4436,0.861458559 6.584,0 5.5232,0 L5.5232,0 L1.9204,0 Z" id="path-74"></path>
        <path d="M1.9204,0 C0.86,0 0,0.861458559 0,1.92415127 L0,1.92415127 C0,2.98724485 0.86,3.84870341 1.9204,3.84870341 L1.9204,3.84870341 L5.5236,3.84870341 C6.584,3.84870341 7.444,2.98724485 7.444,1.92415127 L7.444,1.92415127 C7.444,0.861458559 6.584,0 5.5236,0 L5.5236,0 L1.9204,0 Z" id="path-76"></path>
        <linearGradient x1="49.9981934%" y1="61.6585335%" x2="49.9981934%" y2="119.335243%" id="linearGradient-78">
            <stop stop-color="#F07593" offset="0%"></stop>
            <stop stop-color="#EF547B" offset="100%"></stop>
        </linearGradient>
    </defs>
    <g id="1.首页" stroke="none" stroke-width="1" fill="none" fill-rule="evenodd">
        <g id="2.首页-hover1(开放)" transform="translate(-404.000000, -534.000000)">
            <g id="编组-5" transform="translate(384.000000, 517.000000)">
                <g id="icon_homepage_growup" transform="translate(20.000000, 17.000000)">
                    <g id="编组">
                        <mask id="mask-2" fill="white">
                            <use xlink:href="#path-1"></use>
                        </mask>
                        <g id="Clip-2"></g>
                        <path d="M35.4992,0 L35.4992,2.57114714 C17.548,4.08401107 2.7472,17.8320719 0,35.4428664 L0,35.4428664 L5.392,35.4428664 C8.0512,20.7772259 20.4824,9.38665129 35.4992,7.922292 L35.4992,7.922292 L35.4992,10.4457362 L41.5344,5.22286811 L35.4992,0 Z" id="Fill-1" fill="url(#linearGradient-3)" mask="url(#mask-2)"></path>
                    </g>
                    <g id="编组" transform="translate(1.586800, 61.494271)">
                        <mask id="mask-5" fill="white">
                            <use xlink:href="#path-4"></use>
                        </mask>
                        <g id="Clip-4"></g>
                        <path d="M0,7.84933459 L2.1824,6.58701119 C12.4616,21.426627 31.778,27.3614311 48.3776,20.9367702 L48.3776,20.9367702 L45.682,16.2570739 C31.6716,21.2851217 15.5768,16.2282117 6.8064,3.91123832 L6.8064,3.91123832 L9.026,2.62646649 L1.4964,0 L0,7.84933459 Z" id="Fill-3" fill="url(#linearGradient-6)" mask="url(#mask-5)"></path>
                    </g>
                    <g id="编组" transform="translate(62.890800, 15.572798)">
                        <mask id="mask-8" fill="white">
                            <use xlink:href="#path-7"></use>
                        </mask>
                        <g id="Clip-6"></g>
                        <path d="M0,4.6800971 C11.3692,14.3401382 15.032,30.7888255 8.7312,44.5709599 L8.7312,44.5709599 L6.5504,43.3086365 L8.0448,51.1571693 L15.5768,48.5315046 L13.3548,47.245931 C15.8824,41.8971913 17.1,36.1904794 17.1092,30.5422937 L17.1092,30.5422937 L17.1092,30.4140169 C17.0896,18.8390444 11.9956,7.51581504 2.6968,0 L2.6968,0 L0,4.6800971 Z" id="Fill-5" fill="url(#linearGradient-9)" mask="url(#mask-8)"></path>
                    </g>
                    <g id="编组" transform="translate(18.274000, 21.135198)">
                        <mask id="mask-11" fill="white">
                            <use xlink:href="#path-10"></use>
                        </mask>
                        <g id="Clip-8"></g>
                        <path d="M5.578,0 C2.4972,0 0,2.50259925 0,5.59046117 L0,5.59046117 L0,39.6764001 C0,42.7638611 2.4972,45.2664604 5.578,45.2664604 L5.578,45.2664604 L34.6424,45.2664604 C37.7232,45.2664604 40.2208,42.7638611 40.2208,39.6764001 L40.2208,39.6764001 L40.2208,5.59046117 C40.2208,2.50259925 37.7232,0 34.6424,0 L34.6424,0 L5.578,0 Z" id="Fill-7" fill="url(#linearGradient-12)" mask="url(#mask-11)"></path>
                    </g>
                    <g id="编组" transform="translate(18.274000, 21.135198)">
                        <mask id="mask-14" fill="white">
                            <use xlink:href="#path-13"></use>
                        </mask>
                        <g id="Clip-12"></g>
                        <path d="M5.578,0 C2.4972,0 0,2.50259925 0,5.59046117 L0,5.59046117 L0,16.7689783 L40.2208,16.7689783 L40.2208,5.59046117 C40.2208,2.50259925 37.7232,0 34.6424,0 L34.6424,0 L5.578,0 Z" id="Fill-11" fill="url(#linearGradient-15)" mask="url(#mask-14)"></path>
                    </g>
                    <g id="编组" transform="translate(22.396400, 24.098792)">
                        <mask id="mask-17" fill="white">
                            <use xlink:href="#path-16"></use>
                        </mask>
                        <g id="Clip-14"></g>
                        <path d="M2.2632,0 C1.0132,0 0,1.01539066 0,2.26809331 L0,2.26809331 L0,7.56592315 C0,8.8186258 1.0132,9.83441732 2.2632,9.83441732 L2.2632,9.83441732 L29.7124,9.83441732 C30.9624,9.83441732 31.976,8.8186258 31.9756001,7.56592315 L31.9756001,7.56592315 L31.9756001,2.26809331 C31.9756001,1.01539066 30.9624,0 29.712,0 L29.712,0 L2.2632,0 Z" id="Fill-13" fill="url(#linearGradient-18)" mask="url(#mask-17)"></path>
                    </g>
                    <g id="编组" transform="translate(36.550800, 25.554332)">
                        <mask id="mask-20" fill="white">
                            <use xlink:href="#path-19"></use>
                        </mask>
                        <g id="Clip-16"></g>
                        <path d="M1.1696,0.103423131 L0.1964,1.04104601 C0.0744,1.12562849 0,1.2851727 0,1.42587627 L0,1.42587627 C0,1.62270091 0.1404,1.8291463 0.3368,1.8291463 L0.3368,1.8291463 C0.3932,1.8291463 0.4772,1.80148663 0.5428,1.73534393 L0.5428,1.73534393 L0.87,1.32325486 L0.87,6.53810567 C0.87,6.75377096 1.114,6.86641399 1.366,6.86641399 L1.366,6.86641399 C1.61,6.86641399 1.8624,6.75377096 1.8624,6.53810567 L1.8624,6.53810567 L1.8624,0.328308311 C1.8624,0.121862914 1.6284,0 1.4224,0 L1.4224,0 C1.31,0 1.2356,0.0376812957 1.1696,0.103423131" id="Fill-15" fill="url(#linearGradient-21)" mask="url(#mask-20)"></path>
                    </g>
                    <g id="编组" transform="translate(39.265200, 25.563953)">
                        <mask id="mask-23" fill="white">
                            <use xlink:href="#path-22"></use>
                        </mask>
                        <g id="Clip-18"></g>
                        <path d="M0.1312,1.6603822 C0.1312,2.08209202 0.3184,2.21357569 0.5804,2.21357569 L0.5804,2.21357569 C0.9084,2.21357569 1.1044,2.02597094 1.1044,1.83836619 L1.1044,1.83836619 C1.1044,1.20059022 1.526,0.909562341 2.05,0.909562341 L2.05,0.909562341 C2.7616,0.909562341 3.0612,1.43509616 3.0612,1.89448727 L3.0612,1.89448727 C3.0612,3.33920419 0,4.09924394 0,5.61892258 L0,5.61892258 L0,6.52848492 C0,6.72571042 0.2528,6.85719409 0.44,6.85719409 L0.44,6.85719409 L3.7724,6.85719409 C3.9404,6.85719409 4.1,6.64152881 4.1,6.40702287 L4.1,6.40702287 C4.1,6.17251693 3.9404,5.97529143 3.7724,5.97529143 L3.7724,5.97529143 L1.0208,5.97529143 L1.0208,5.61892258 C1.0208,4.53979441 4.0528,3.88317778 4.0528,1.86642673 L4.0528,1.86642673 C4.0528,0.741199104 3.1356,0 2.05,0 L2.05,0 C1.0296,0 0.1312,0.656616621 0.1312,1.6603822" id="Fill-17" fill="url(#linearGradient-24)" mask="url(#mask-23)"></path>
                    </g>
                    <g id="编组" transform="translate(43.842400, 25.563953)">
                        <mask id="mask-26" fill="white">
                            <use xlink:href="#path-25"></use>
                        </mask>
                        <g id="Clip-20"></g>
                        <path d="M0.1496,1.58542047 C0.1496,1.94178932 0.2248,2.04521246 0.6644,2.04521246 L0.6644,2.04521246 C1.0204,2.04521246 1.1328,1.88566825 1.1328,1.64154155 L1.1328,1.64154155 C1.1328,1.25711216 1.348,0.872682775 2.1064,0.872682775 L2.1064,0.872682775 C2.7144,0.872682775 3.0424,1.1540899 3.0424,1.83876706 L3.0424,1.83876706 C3.0424,2.69220832 2.6392,2.87059318 2.0688,2.87059318 L2.0688,2.87059318 C1.8348,2.87059318 1.7504,3.06741782 1.7504,3.27386322 L1.7504,3.27386322 C1.7504,3.47068786 1.8348,3.66791336 2.0688,3.66791336 L2.0688,3.66791336 C2.752,3.66791336 3.2108,3.93969973 3.2108,4.69011872 L3.2108,4.69011872 L3.2108,4.86810272 C3.2108,5.68466441 2.8456,6.03141251 2.0776,6.03181337 L2.0776,6.03181337 C1.3196,6.03181337 0.9732,5.62814247 0.9732,5.21565254 L0.9732,5.21565254 C0.9732,4.96190509 0.8704,4.84004218 0.4584,4.84004218 L0.4584,4.84004218 C0.1216,4.84004218 0,4.93384455 0,5.26255373 L0,5.26255373 C0,6.00335197 0.6084,6.91331517 2.0684,6.91331517 L2.0684,6.91331517 C3.2476,6.91331517 4.2024,6.36012168 4.2024,4.86810272 L4.2024,4.86810272 L4.2024,4.69011872 C4.2024,3.89279854 3.8,3.45224807 3.2476,3.23618192 L3.2476,3.23618192 C3.6972,3.02051663 3.9968,2.44848249 3.9968,1.67000296 L3.9968,1.67000296 C3.9968,0.431731442 3.2104,0 2.1152,0 L2.1152,0 C0.5708,0 0.1496,0.975705041 0.1496,1.58542047" id="Fill-19" fill="url(#linearGradient-27)" mask="url(#mask-26)"></path>
                    </g>
                    <g id="编组" transform="translate(48.410400, 25.563953)">
                        <mask id="mask-29" fill="white">
                            <use xlink:href="#path-28"></use>
                        </mask>
                        <g id="Clip-22"></g>
                        <path d="M2.3212,0.271786367 L0.056,4.74664067 C0.0188,4.81198164 0,4.88734423 0,4.95308606 L0,4.95308606 C0,5.17797124 0.1496,5.31867481 0.3464,5.31867481 L0.3464,5.31867481 L2.6488,5.31867481 L2.6488,6.52848492 C2.6488,6.74415021 2.8924,6.85679323 3.1448,6.85679323 L3.1448,6.85679323 C3.3884,6.85679323 3.6408,6.74415021 3.6408,6.52848492 L3.6408,6.52848492 L3.6408,5.31867481 L4.0996,5.31867481 C4.2772,5.31867481 4.4368,5.08376801 4.4368,4.85888283 L4.4368,4.85888283 C4.4368,4.62437689 4.3244,4.38987095 4.0996,4.38987095 L4.0996,4.38987095 L3.6408,4.38987095 L3.6408,3.09547836 C3.6408,2.86097242 3.3884,2.76717005 3.1448,2.76717005 L3.1448,2.76717005 C2.8924,2.76717005 2.6488,2.86097242 2.6488,3.09547836 L2.6488,3.09547836 L2.6488,4.38987095 L1.2728,4.38987095 L3.2012,0.534352843 C3.2292,0.478231764 3.2476,0.431731442 3.2476,0.384429389 L3.2476,0.384429389 C3.2476,0.150324318 2.9388,0 2.7516,0 L2.7516,0 C2.5928,0 2.424,0.0753625915 2.3212,0.271786367" id="Fill-21" fill="url(#linearGradient-30)" mask="url(#mask-29)"></path>
                    </g>
                    <g id="编组" transform="translate(22.396400, 40.221977)">
                        <mask id="mask-32" fill="white">
                            <use xlink:href="#path-31"></use>
                        </mask>
                        <g id="Clip-26"></g>
                    </g>
                    <g id="编组" transform="translate(34.662400, 40.221977)">
                        <mask id="mask-34" fill="white">
                            <use xlink:href="#path-33"></use>
                        </mask>
                        <g id="Clip-28"></g>
                    </g>
                    <g id="编组" transform="translate(22.396400, 40.221977)">
                        <mask id="mask-36" fill="white">
                            <use xlink:href="#path-35"></use>
                        </mask>
                        <g id="Clip-30"></g>
                        <path d="M1.92,0 C0.8596,0 0,0.861458559 0,1.92415127 L0,1.92415127 C0,2.98684398 0.8596,3.84870341 1.92,3.84870341 L1.92,3.84870341 L5.5236,3.84870341 C6.584,3.84870341 7.4436,2.98684398 7.4436,1.92415127 L7.4436,1.92415127 C7.4436,0.861458559 6.584,0 5.5236,0 L5.5236,0 L1.92,0 Z" id="Fill-29" fill="url(#linearGradient-37)" mask="url(#mask-36)"></path>
                    </g>
                    <g id="编组" transform="translate(34.662400, 40.221977)">
                        <mask id="mask-39" fill="white">
                            <use xlink:href="#path-38"></use>
                        </mask>
                        <g id="Clip-32"></g>
                        <path d="M1.9204,0 C0.86,0 0,0.861458559 0,1.92415127 L0,1.92415127 C0,2.98684398 0.86,3.84870341 1.9204,3.84870341 L1.9204,3.84870341 L5.5232,3.84870341 C6.584,3.84870341 7.4436,2.98684398 7.4436,1.92415127 L7.4436,1.92415127 C7.4436,0.861458559 6.584,0 5.5232,0 L5.5232,0 L1.9204,0 Z" id="Fill-31" fill="url(#linearGradient-37)" mask="url(#mask-39)"></path>
                    </g>
                    <g id="编组" transform="translate(46.928000, 40.221977)">
                        <mask id="mask-41" fill="white">
                            <use xlink:href="#path-40"></use>
                        </mask>
                        <g id="Clip-34"></g>
                    </g>
                    <g id="编组" transform="translate(46.928400, 40.221977)">
                        <mask id="mask-43" fill="white">
                            <use xlink:href="#path-42"></use>
                        </mask>
                        <g id="Clip-36"></g>
                        <path d="M1.9204,0 C0.86,0 0,0.861458559 0,1.92415127 L0,1.92415127 C0,2.98684398 0.86,3.84870341 1.9204,3.84870341 L1.9204,3.84870341 L5.5236,3.84870341 C6.584,3.84870341 7.444,2.98684398 7.444,1.92415127 L7.444,1.92415127 C7.444,0.861458559 6.584,0 5.5236,0 L5.5236,0 L1.9204,0 Z" id="Fill-35" fill="url(#linearGradient-44)" mask="url(#mask-43)"></path>
                    </g>
                    <g id="编组" transform="translate(22.396400, 46.914015)">
                        <mask id="mask-46" fill="white">
                            <use xlink:href="#path-45"></use>
                        </mask>
                        <g id="Clip-38"></g>
                    </g>
                    <g id="编组" transform="translate(34.662400, 46.914015)">
                        <mask id="mask-48" fill="white">
                            <use xlink:href="#path-47"></use>
                        </mask>
                        <g id="Clip-40"></g>
                    </g>
                    <g id="编组" transform="translate(22.396400, 46.914015)">
                        <mask id="mask-50" fill="white">
                            <use xlink:href="#path-49"></use>
                        </mask>
                        <g id="Clip-42"></g>
                        <path d="M1.92,0 C0.8596,0 0,0.861458559 0,1.92415127 L0,1.92415127 C0,2.98724485 0.8596,3.84870341 1.92,3.84870341 L1.92,3.84870341 L5.5236,3.84870341 C6.584,3.84870341 7.4436,2.98724485 7.4436,1.92415127 L7.4436,1.92415127 C7.4436,0.861458559 6.584,0 5.5236,0 L5.5236,0 L1.92,0 Z" id="Fill-41" fill="url(#linearGradient-51)" mask="url(#mask-50)"></path>
                    </g>
                    <g id="编组" transform="translate(34.662400, 46.914015)">
                        <mask id="mask-53" fill="white">
                            <use xlink:href="#path-52"></use>
                        </mask>
                        <g id="Clip-44"></g>
                        <path d="M1.9204,0 C0.86,0 0,0.861458559 0,1.92415127 L0,1.92415127 C0,2.98724485 0.86,3.84870341 1.9204,3.84870341 L1.9204,3.84870341 L5.5232,3.84870341 C6.584,3.84870341 7.4436,2.98724485 7.4436,1.92415127 L7.4436,1.92415127 C7.4436,0.861458559 6.584,0 5.5232,0 L5.5232,0 L1.9204,0 Z" id="Fill-43" fill="url(#linearGradient-51)" mask="url(#mask-53)"></path>
                    </g>
                    <g id="编组" transform="translate(46.928000, 46.914015)">
                        <mask id="mask-55" fill="white">
                            <use xlink:href="#path-54"></use>
                        </mask>
                        <g id="Clip-46"></g>
                    </g>
                    <g id="编组" transform="translate(46.928400, 46.914015)">
                        <mask id="mask-57" fill="white">
                            <use xlink:href="#path-56"></use>
                        </mask>
                        <g id="Clip-48"></g>
                        <path d="M1.9204,0 C0.86,0 0,0.861458559 0,1.92415127 L0,1.92415127 C0,2.98724485 0.86,3.84870341 1.9204,3.84870341 L1.9204,3.84870341 L5.5236,3.84870341 C6.584,3.84870341 7.444,2.98724485 7.444,1.92415127 L7.444,1.92415127 C7.444,0.861458559 6.584,0 5.5236,0 L5.5236,0 L1.9204,0 Z" id="Fill-47" fill="url(#linearGradient-58)" mask="url(#mask-57)"></path>
                    </g>
                    <g id="编组" transform="translate(22.396400, 53.606454)">
                        <mask id="mask-60" fill="white">
                            <use xlink:href="#path-59"></use>
                        </mask>
                        <g id="Clip-50"></g>
                    </g>
                    <g id="编组" transform="translate(34.662400, 53.606454)">
                        <mask id="mask-62" fill="white">
                            <use xlink:href="#path-61"></use>
                        </mask>
                        <g id="Clip-52"></g>
                    </g>
                    <g id="编组" transform="translate(22.396400, 53.606454)">
                        <mask id="mask-64" fill="white">
                            <use xlink:href="#path-63"></use>
                        </mask>
                        <g id="Clip-54"></g>
                        <path d="M1.92,0 C0.8596,0 0,0.861458559 0,1.92375041 L0,1.92375041 C0,2.98684398 0.8596,3.84830254 1.92,3.84830254 L1.92,3.84830254 L5.5236,3.84830254 C6.584,3.84830254 7.4436,2.98684398 7.4436,1.92375041 L7.4436,1.92375041 C7.4436,0.861458559 6.584,0 5.5236,0 L5.5236,0 L1.92,0 Z" id="Fill-53" fill="url(#linearGradient-65)" mask="url(#mask-64)"></path>
                    </g>
                    <g id="编组" transform="translate(34.662400, 53.606454)">
                        <mask id="mask-67" fill="white">
                            <use xlink:href="#path-66"></use>
                        </mask>
                        <g id="Clip-56"></g>
                        <path d="M1.9204,0 C0.86,0 0,0.861458559 0,1.92375041 L0,1.92375041 C0,2.98684398 0.86,3.84830254 1.9204,3.84830254 L1.9204,3.84830254 L5.5232,3.84830254 C6.584,3.84830254 7.4436,2.98684398 7.4436,1.92375041 L7.4436,1.92375041 C7.4436,0.861458559 6.584,0 5.5232,0 L5.5232,0 L1.9204,0 Z" id="Fill-55" fill="url(#linearGradient-65)" mask="url(#mask-67)"></path>
                    </g>
                    <g id="编组" transform="translate(46.928400, 53.606454)">
                        <mask id="mask-69" fill="white">
                            <use xlink:href="#path-68"></use>
                        </mask>
                        <g id="Clip-60"></g>
                        <path d="M1.9204,0 C0.86,0 0,0.861458559 0,1.92375041 L0,1.92375041 C0,2.98684398 0.86,3.84830254 1.9204,3.84830254 L1.9204,3.84830254 L5.5236,3.84830254 C6.584,3.84830254 7.444,2.98684398 7.444,1.92375041 L7.444,1.92375041 C7.444,0.861458559 6.584,0 5.5236,0 L5.5236,0 L1.9204,0 Z" id="Fill-59" fill="url(#linearGradient-70)" mask="url(#mask-69)"></path>
                    </g>
                    <g id="编组" transform="translate(22.396400, 60.298491)">
                        <mask id="mask-72" fill="white">
                            <use xlink:href="#path-71"></use>
                        </mask>
                        <g id="Clip-66"></g>
                        <path d="M1.92,0 C0.8596,0 0,0.861458559 0,1.92415127 L0,1.92415127 C0,2.98724485 0.8596,3.84870341 1.92,3.84870341 L1.92,3.84870341 L5.5236,3.84870341 C6.584,3.84870341 7.4436,2.98724485 7.4436,1.92415127 L7.4436,1.92415127 C7.4436,0.861458559 6.584,0 5.5236,0 L5.5236,0 L1.92,0 Z" id="Fill-65" fill="url(#linearGradient-73)" mask="url(#mask-72)"></path>
                    </g>
                    <g id="编组" transform="translate(34.662400, 60.298491)">
                        <mask id="mask-75" fill="white">
                            <use xlink:href="#path-74"></use>
                        </mask>
                        <g id="Clip-68"></g>
                        <path d="M1.9204,0 C0.86,0 0,0.861458559 0,1.92415127 L0,1.92415127 C0,2.98724485 0.86,3.84870341 1.9204,3.84870341 L1.9204,3.84870341 L5.5232,3.84870341 C6.584,3.84870341 7.4436,2.98724485 7.4436,1.92415127 L7.4436,1.92415127 C7.4436,0.861458559 6.584,0 5.5232,0 L5.5232,0 L1.9204,0 Z" id="Fill-67" fill="url(#linearGradient-73)" mask="url(#mask-75)"></path>
                    </g>
                    <g id="编组" transform="translate(46.928400, 60.298491)">
                        <mask id="mask-77" fill="white">
                            <use xlink:href="#path-76"></use>
                        </mask>
                        <g id="Clip-72"></g>
                        <path d="M1.9204,0 C0.86,0 0,0.861458559 0,1.92415127 L0,1.92415127 C0,2.98724485 0.86,3.84870341 1.9204,3.84870341 L1.9204,3.84870341 L5.5236,3.84870341 C6.584,3.84870341 7.444,2.98724485 7.444,1.92415127 L7.444,1.92415127 C7.444,0.861458559 6.584,0 5.5236,0 L5.5236,0 L1.9204,0 Z" id="Fill-71" fill="url(#linearGradient-78)" mask="url(#mask-77)"></path>
                    </g>
                </g>
            </g>
        </g>
    </g>
</svg>