<?xml version="1.0" encoding="UTF-8"?>
<svg width="18px" height="18px" viewBox="0 0 18 18" version="1.1" xmlns="http://www.w3.org/2000/svg" xmlns:xlink="http://www.w3.org/1999/xlink">
    <title>top_icon_develop</title>
    <g id="1.首页" stroke="none" stroke-width="1" fill="none" fill-rule="evenodd">
        <g id="2.首页-hover1(开放)" transform="translate(-1168.000000, -24.000000)" fill="#FFFFFF">
            <g id="编组-2" transform="translate(999.000000, 17.000000)">
                <g id="开发" transform="translate(142.000000, 0.000000)">
                    <g id="编组备份" transform="translate(27.000000, 6.000000)">
                        <path d="M9.83967188,7.5030879 L6.87473438,12.6435142 C6.67842188,13.0030938 6.81103125,13.453658 7.17060938,13.6499713 C7.51795313,13.8393939 7.95290625,13.7229559 8.15920313,13.385314 L11.1252656,8.24615331 C11.3297344,7.89121442 11.2076719,7.4375564 10.8527344,7.23308685 C10.7400938,7.16825847 10.6124063,7.13406892 10.4824688,7.13406892 C10.21725,7.13225833 9.97214063,7.27344638 9.83967188,7.5030879 Z M4.12973438,10.1658327 L5.68926563,8.60502971 C5.979375,8.3149192 5.979375,7.84466736 5.68926563,7.55455685 C5.39929688,7.26444635 4.92890625,7.26444635 4.63879688,7.55455685 L2.67173438,9.52162704 C2.4553125,9.65733069 2.32410938,9.89498787 2.32453125,10.1503639 C2.31426563,10.4174118 2.44828125,10.6692721 2.67553125,10.8098977 L4.64146875,12.7745772 C4.92876563,13.0646878 5.39676563,13.0667971 5.686875,12.7794991 L5.6919375,12.7745772 C5.981625,12.4848886 5.981625,12.0151993 5.6919375,11.72537 L4.12720313,10.1658327 L4.12973438,10.1658327 Z M13.3612031,7.8360892 C13.0734844,7.54640057 12.6053438,7.54471307 12.3156563,7.83243294 C12.2454844,7.90218321 12.1900781,7.98515229 12.1525313,8.07655889 C12.0376406,8.3528881 12.0999375,8.67140497 12.3107344,8.8840308 L13.8716719,10.4448338 L12.3107344,12.0045117 C12.0299063,12.3037629 12.0448125,12.7740147 12.3442031,13.054844 C12.6300938,13.3231575 13.0751719,13.3231575 13.3612031,13.054844 L15.3296719,11.0863675 C15.5434219,10.9526326 15.6743438,10.718913 15.6767344,10.4666307 C15.6895313,10.1990203 15.5567813,9.94533182 15.3296719,9.80330001 L13.3612031,7.8360892 Z M0,10.0000352 C0,5.02934386 4.02946875,1 9,1 C13.9706719,1 18,5.02934386 18,10.0000352 C18,14.9704452 13.9706719,19.0000703 9,19.0000703 C4.02946875,19.0000703 0,14.9704452 0,10.0000352 Z" id="top_icon_develop"></path>
                    </g>
                </g>
            </g>
        </g>
    </g>
</svg>