<?xml version="1.0" encoding="UTF-8"?>
<svg width="16px" height="17px" viewBox="0 0 16 17" version="1.1" xmlns="http://www.w3.org/2000/svg" xmlns:xlink="http://www.w3.org/1999/xlink">
    <title>top_icon_iconfont</title>
    <g id="1.首页" stroke="none" stroke-width="1" fill="none" fill-rule="evenodd">
        <g id="2.首页-hover1(开放)" transform="translate(-1309.000000, -25.000000)" fill="#FFFFFF">
            <g id="编组-2" transform="translate(999.000000, 17.000000)">
                <g id="图标库" transform="translate(284.000000, 0.000000)">
                    <g id="编组-6" transform="translate(25.999961, 6.000000)">
                        <path d="M15.2682866,11.4117663 L10.143555,11.4117663 C9.74008981,11.4133065 9.41334311,11.7399845 9.41180258,12.1433647 L9.41180258,17.2676342 C9.41288095,17.6713225 9.73978171,17.9986166 10.143555,18.0000027 L15.2682866,18.0000027 C15.6720599,17.9986166 15.9989606,17.6713225 16.000039,17.2676342 L16.000039,12.1442889 C15.9984985,11.7407546 15.6717518,11.4140766 15.2682866,11.4126904 L15.2682866,11.4117663 Z M0,14.7058845 C0,16.7854292 1.68595447,18.4705911 3.76470653,18.4705911 C5.84345858,18.4705911 7.52941305,16.7846366 7.52941305,14.7058845 C7.52941305,12.627291 5.84345858,10.941178 3.76470653,10.941178 C1.68595447,10.941178 0,12.627291 0,14.7058845 L0,14.7058845 Z M4.96357478,9.11763294 L11.0380016,9.11763294 C11.6275983,9.11763294 11.9962979,8.44723296 11.7013382,7.91324567 L8.66589968,2.40264568 C8.37110136,1.86578477 7.63386351,1.86578477 7.33906518,2.40264568 L4.30346533,7.91324567 C4.00189003,8.44672585 4.37058963,9.11763294 4.96357478,9.11763294 L4.96357478,9.11763294 Z" id="top_icon_iconfont"></path>
                    </g>
                </g>
            </g>
        </g>
    </g>
</svg>