<?xml version="1.0" encoding="UTF-8"?>
<svg width="18px" height="18px" viewBox="0 0 18 18" version="1.1" xmlns="http://www.w3.org/2000/svg" xmlns:xlink="http://www.w3.org/1999/xlink">
    <title>top_icon_design</title>
    <defs>
        <polygon id="path-1" points="0 0 18 0 18 18.0000281 0 18.0000281"></polygon>
    </defs>
    <g id="1.首页" stroke="none" stroke-width="1" fill="none" fill-rule="evenodd">
        <g id="2.首页-hover1(开放)" transform="translate(-1025.000000, -24.000000)">
            <g id="编组-2" transform="translate(999.000000, 17.000000)">
                <g id="编组备份" transform="translate(26.000000, 6.000000)">
                    <g id="top_icon_design" transform="translate(0.000000, 1.000000)">
                        <mask id="mask-2" fill="white">
                            <use xlink:href="#path-1"></use>
                        </mask>
                        <g id="Clip-2"></g>
                        <path d="M6.29998172,8.77501371 C5.67898075,8.77501371 5.17497996,9.27887387 5.17497996,9.90001547 C5.17497996,10.5210164 5.67898075,11.0250172 6.29998172,11.0250172 C6.92098269,11.0250172 7.42498348,10.5210164 7.42498348,9.90001547 C7.42498348,9.27887387 6.92098269,8.77501371 6.29998172,8.77501371 M11.6999902,8.77501371 C11.0789892,8.77501371 10.5749884,9.27887387 10.5749884,9.90001547 C10.5749884,10.5210164 11.0789892,11.0250172 11.6999902,11.0250172 C12.3209911,11.0250172 12.8249919,10.5210164 12.8249919,9.90001547 C12.8249919,9.27887387 12.3209911,8.77501371 11.6999902,8.77501371 M8.99998594,0 C4.03197817,0 -2.8125044e-05,4.0320063 -2.8125044e-05,9.00001406 C-2.8125044e-05,13.9680218 4.03197817,18.0000281 8.99998594,18.0000281 C13.9679937,18.0000281 18,13.9680218 18,9.00001406 C18,4.0320063 13.9679937,0 8.99998594,0 M8.99998594,16.2000253 C5.03097974,16.2000253 1.79997469,12.9690203 1.79997469,9.00001406 C1.79997469,8.73901365 1.81797472,8.47801325 1.84497476,8.22601285 C3.97108745,7.27763637 5.6502932,5.54682117 6.53398208,3.3930053 C8.16298463,5.6970089 10.8449888,7.20001125 13.8781342,7.20001125 C14.5799947,7.20001125 15.2551363,7.11901112 15.9029967,6.96601088 C16.091997,7.60501188 16.1999972,8.28901295 16.1999972,9.00001406 C16.1999972,12.9690203 12.9689921,16.2000253 8.99998594,16.2000253" id="Fill-1" fill="#FFFFFF" mask="url(#mask-2)"></path>
                    </g>
                </g>
            </g>
        </g>
    </g>
</svg>