<?xml version="1.0" encoding="UTF-8"?>
<svg width="78px" height="68px" viewBox="0 0 78 68" version="1.1" xmlns="http://www.w3.org/2000/svg" xmlns:xlink="http://www.w3.org/1999/xlink">
    <title>icon_homepage_agree</title>
    <defs>
        <polygon id="path-1" points="0 0 24.4318603 0 24.4318603 19.5024038 0 19.5024038"></polygon>
        <polygon id="path-3" points="0 0 4.9955344 0 4.9955344 5.01494292 0 5.01494292"></polygon>
        <path d="M0,7.42379496 C0,11.5234593 3.31091896,14.8472677 7.39500618,14.8472677 L7.39500618,14.8472677 C11.4790934,14.8472677 14.7900124,11.5234593 14.7900124,7.42379496 L14.7900124,7.42379496 C14.7900124,3.32380837 11.4790934,0 7.39500618,0 L7.39500618,0 C3.31091896,0 0,3.32380837 0,7.42379496" id="path-5"></path>
        <linearGradient x1="-0.000462436526%" y1="50.0000516%" x2="99.9980077%" y2="50.0000516%" id="linearGradient-7">
            <stop stop-color="#4D4D4D" offset="0%"></stop>
            <stop stop-color="#313131" offset="100%"></stop>
        </linearGradient>
    </defs>
    <g id="1.首页" stroke="none" stroke-width="1" fill="none" fill-rule="evenodd">
        <g id="2.首页-hover1(开放)" transform="translate(-261.000000, -545.000000)">
            <g id="编组-4" transform="translate(240.000000, 517.000000)">
                <g id="icon_homepage_agree" transform="translate(21.000000, 28.000000)">
                    <g id="编组">
                        <path d="M44.9486456,7.97056723 C44.1472337,7.97056723 43.3779168,8.19578457 42.672469,8.61432151 C41.8710572,7.26237309 40.4283874,6.45784134 38.8897537,6.4259436 L36.6135772,6.4259436 C32.189604,6.4259436 28.6312327,10.0303876 28.5991377,14.4715833 L28.5991377,18.0757051 C29.3045856,17.4963907 30.2340564,17.2711733 31.0996582,17.4000531 L31.0996582,17.0137361 C31.0996582,16.7885187 31.2922282,16.5955213 31.5165721,16.5955213 L31.6128571,16.5955213 C33.0231109,16.8851785 37.1906451,17.4000531 40.0117945,13.827829 C40.1398535,13.6345094 40.4287084,13.6022895 40.5888624,13.7633891 L40.6209574,13.7956091 C41.2618943,14.4390412 42.9610029,15.7265497 46.1990663,15.8232095 C46.4230893,15.8232095 46.5835642,16.0162069 46.5835642,16.2414242 L46.5835642,16.370304 L46.5835642,17.4000531 C47.5772251,17.2389534 48.6033018,17.5608305 49.3405237,18.2690247 L49.3405237,12.4117629 C49.3405237,9.96594774 47.3849761,7.97056723 44.9486456,7.97056723" id="Fill-1" fill="#6D6C6B"></path>
                        <path d="M12.4421998,10.5773532 C7.69759773,10.5773532 3.88278746,14.4392345 3.85069247,19.2023073 L3.85069247,25.1559067 C3.85069247,26.3789754 4.10745237,27.6339418 4.62033028,28.7281307 C4.97273325,29.5326625 5.7741451,30.0156393 6.63974693,30.0156393 L9.94167929,30.0156393 L9.94167929,29.371885 C7.89016766,28.3418137 6.60765194,26.2178757 6.63974693,23.9009402 L6.63974693,21.1973656 C6.63974693,20.8113708 6.96037586,20.4894936 7.34519476,20.4894936 L7.37728975,20.4894936 L7.56953873,20.4894936 C9.36461141,20.4894936 11.0637201,19.6849619 12.1857609,18.2688958 C12.4421998,17.9792386 12.8591137,17.9147987 13.1794217,18.1725582 C13.2115167,18.2044559 13.2436117,18.2366759 13.2757066,18.2688958 C14.3977474,19.6849619 16.0968561,20.4894936 17.8919288,20.4894936 C18.2767477,20.4894936 18.5973766,20.7791509 18.5973766,21.1654679 L18.5973766,23.9972778 C18.5973766,26.1856557 17.3790509,28.2132562 15.4555982,29.2752252 L15.4555982,30.0156393 L18.2125577,30.0156393 C19.0781595,30.0156393 19.8795714,29.5004425 20.2322953,28.7281307 C20.7451732,27.6017218 21.0337071,26.3789754 21.0016122,25.1559067 L21.0016122,19.2023073 C21.0016122,14.4392345 17.1547069,10.5773532 12.4421998,10.5773532" id="Fill-3" fill="#888888"></path>
                        <path d="M65.2730856,9.51535196 C60.6889584,9.51535196 56.9383381,13.0231362 56.9383381,17.3354521 L56.9383381,20.0068068 C57.3549311,19.7493695 57.867809,19.6204898 58.3485919,19.6204898 C58.4769718,19.6204898 58.6371258,19.6204898 58.7655058,19.6527097 L58.7655058,19.4919323 C58.7655058,19.4919323 60.5605785,18.4940809 60.5605785,16.9494573 L60.5605785,16.9172374 C60.5605785,16.2093654 61.1376464,15.6622709 61.8109992,15.6622709 C61.9069632,15.6622709 62.0032482,15.6622709 62.0995331,15.6941687 C64.1831398,16.1449255 66.3309364,16.1449255 68.3827689,15.6941687 C69.0558008,15.5333912 69.7291537,15.9197082 69.9214027,16.5953602 C69.9534977,16.69202 69.9534977,16.7883576 69.9534977,16.8850174 L69.9534977,16.9172374 C69.9534977,18.4299633 71.7488913,19.4597123 71.7488913,19.4597123 L71.7488913,19.6204898 C71.8769503,19.5882699 72.0371043,19.5882699 72.1654842,19.5882699 C72.6462671,19.5882699 73.159466,19.7171496 73.5760589,19.9745869 L73.5760589,17.3035544 C73.6081539,13.0553561 69.8572127,9.51535196 65.2730856,9.51535196" id="Fill-5" fill="#6D6C6B"></path>
                        <path d="M12.6025143,30.0476981 L12.6025143,30.0476981 C11.6727225,30.0476981 10.7753466,29.8224808 9.94183977,29.4039438 L9.94183977,31.6245417 L10.8713106,34.3277941 C10.9355006,34.4888938 11.0638805,34.5852314 11.2561295,34.5852314 L14.141148,34.5852314 C14.3016229,34.5852314 14.4617769,34.4888938 14.5259669,34.3277941 L15.4557587,31.6245417 L15.4557587,29.3076062 C14.5901569,29.7902608 13.5961751,30.0476981 12.6025143,30.0476981" id="Fill-7" fill="#F7CFB4"></path>
                        <path d="M72.1975471,19.652742 C72.0370722,19.652742 71.9090132,19.652742 71.7488592,19.6849619 C71.7488592,19.8138416 71.7806332,19.9423992 71.7806332,20.1031766 L71.7806332,24.319155 C71.7806332,24.4480347 71.7806332,24.6088122 71.7488592,24.7376919 C71.8769182,24.7699119 72.0370722,24.7699119 72.1975471,24.7699119 C73.6081218,24.8662495 74.8261266,23.8042804 74.9224116,22.3882143 C75.0186966,20.9721483 73.9608458,19.7494018 72.550271,19.652742 C72.4218911,19.620522 72.3256061,19.620522 72.1975471,19.652742" id="Fill-9" fill="#F7CFB4"></path>
                        <path d="M58.7654737,20.07115 C58.7654737,19.9422703 58.7654737,19.7814928 58.7975687,19.6526131 C58.6691887,19.6207154 58.5090347,19.6207154 58.3485598,19.6207154 C56.938306,19.5240555 55.7199803,20.5860246 55.6236953,22.0020907 C55.5277313,23.4181568 56.5855821,24.6409032 57.9961568,24.737563 L58.3485598,24.737563 C58.5090347,24.737563 58.6370937,24.737563 58.7975687,24.7053431 C58.7975687,24.5767856 58.7654737,24.4479058 58.7654737,24.2871284 L58.7654737,20.07115 Z" id="Fill-11" fill="#F7CFB4"></path>
                        <path d="M69.9855285,16.9816128 L69.9855285,16.9493929 C69.9855285,16.2415209 69.4084606,15.6944264 68.7354287,15.6944264 C68.6391437,15.6944264 68.5428587,15.6944264 68.4468947,15.7263242 C66.3629672,16.177081 64.2151706,16.177081 62.1636589,15.7263242 C61.4903061,15.5655467 60.8169532,15.9518637 60.6247043,16.6275157 C60.5926093,16.7241755 60.5926093,16.8208353 60.5926093,16.9171729 L60.5926093,16.9493929 C60.5926093,18.4621187 58.7975366,19.4918678 58.7975366,19.4918678 L58.7975366,24.1582809 C58.7975366,27.3122902 61.2980571,30.0799825 64.6638585,30.3696397 C68.5110847,30.7234146 71.8126961,27.8593847 71.8126961,24.2871606 L71.8126961,19.4918678 C71.7809221,19.5240878 69.9855285,18.4943387 69.9855285,16.9816128" id="Fill-13" fill="#F7CFB4"></path>
                        <path d="M47.128505,17.3678654 C46.9680301,17.3678654 46.7757811,17.3678654 46.6156271,17.4000853 C46.6156271,17.5608628 46.6477221,17.7538602 46.6477221,17.9149598 L46.6477221,23.2892448 C46.6477221,23.4503445 46.6477221,23.6433419 46.6156271,23.8044415 C48.3789258,24.0937765 50.0456185,22.90325 50.3341524,21.1330868 C50.6226864,19.3632459 49.4367766,17.6897425 47.6734779,17.4000853 C47.481229,17.3678654 47.28898,17.3678654 47.128505,17.3678654" id="Fill-15" fill="#F7CFB4"></path>
                        <path d="M31.1318174,17.9149598 C31.1318174,17.7538602 31.1318174,17.5608628 31.1639124,17.4000853 C29.4006138,17.1104281 27.7336001,18.3009546 27.4450661,20.0711178 C27.1568531,21.841281 28.342763,23.5147843 30.1060616,23.8044415 C30.4584646,23.8685592 30.8432835,23.8685592 31.1960074,23.8044415 C31.1960074,23.6433419 31.1639124,23.4503445 31.1639124,23.2892448 L31.1318174,17.9149598 Z" id="Fill-17" fill="#F7CFB4"></path>
                        <path d="M46.615595,16.2414242 C46.615595,16.0162069 46.4233461,15.8554294 46.2310971,15.8232095 C43.0251287,15.7265497 41.3260201,14.4390412 40.6529882,13.7956091 C40.4925132,13.6345094 40.2360743,13.6345094 40.0759203,13.7956091 L40.0438253,13.827829 C37.2226758,17.4000531 33.0230467,16.8851785 31.6448879,16.5955213 C31.420223,16.5633014 31.195879,16.6918589 31.163784,16.9173985 L31.163784,17.0137361 L31.163784,23.2895348 C31.195879,27.6018507 34.6903813,31.0455173 38.9538795,31.0132973 C43.1852827,30.9810774 46.615595,27.5374109 46.64769,23.2895348 L46.64769,16.370304 C46.615595,16.3058641 46.615595,16.2736442 46.615595,16.2414242" id="Fill-19" fill="#F7CFB4"></path>
                        <path d="M38.8576266,31.0775116 L38.8576266,31.0775116 C37.6713959,31.0775116 36.4854861,30.7878544 35.3955403,30.24076 L35.3955403,33.1047899 L36.6135451,36.6128963 C36.677735,36.8058937 36.869984,36.9669934 37.0946489,36.9669934 L40.8452692,36.9669934 C41.0696132,36.9669934 41.2618622,36.8381136 41.3260522,36.6128963 L42.5443779,33.1047899 L42.5443779,30.1118802 C41.4223371,30.7556345 40.1719164,31.0775116 38.8576266,31.0775116" id="Fill-21" fill="#F7CFB4"></path>
                        <path d="M17.8599301,20.5217136 L17.8599301,20.5217136 C16.0645364,20.5217136 14.3657487,19.7171818 13.211613,18.3011157 C12.955174,18.0114585 12.5382601,17.9470187 12.2179521,18.2044559 C12.1858571,18.2366759 12.1537621,18.2688958 12.1216672,18.3011157 C10.9996264,19.7171818 9.30051772,20.5217136 7.50544504,20.5217136 L7.31287511,20.5217136 C6.92837715,20.5217136 6.60774822,20.8113708 6.60774822,21.1973656 L6.60774822,21.2295855 L6.60774822,23.9331602 C6.57565324,27.0546274 8.91601976,29.6937621 11.9932872,30.047537 C15.2952196,30.3694142 18.212654,27.9558189 18.5332829,24.6410321 C18.5653779,24.4480347 18.5653779,24.2547151 18.5653779,24.0939376 L18.5653779,21.2618055 C18.5971519,20.8113708 18.276844,20.5217136 17.8599301,20.5217136 C17.8920251,20.5217136 17.8599301,20.5217136 17.8599301,20.5217136" id="Fill-23" fill="#F7CFB4"></path>
                        <path d="M64.6319561,30.3694786 C63.8947342,30.3050387 63.1892864,30.1120413 62.5162545,29.8223841 L62.5162545,31.656665 L63.4457253,34.3599174 C63.5099153,34.5210171 63.6382952,34.6176769 63.8305442,34.6176769 L66.7155627,34.6176769 C66.8760376,34.6176769 67.0361916,34.5210171 67.1003816,34.3599174 L68.0301734,31.656665 L68.0301734,29.8546041 C66.9723226,30.2728188 65.7860918,30.4661384 64.6319561,30.3694786" id="Fill-25" fill="#F7CFB4"></path>
                        <path d="M55.4635092,56.3084908 L54.5016224,39.2196822 C54.4377534,37.868056 53.5079616,36.7416471 52.1936719,36.41977 L46.166875,34.9070441 L42.5443137,33.1049832 L41.325988,36.6127674 C41.2621189,36.806087 41.069549,36.9668645 40.845205,36.9668645 L37.0945848,36.9668645 C36.8702408,36.9668645 36.6776709,36.8383069 36.6138018,36.6127674 L35.3954761,33.1049832 L31.7729148,34.9070441 L25.7461179,36.41977 C24.4318282,36.7416471 23.5020364,37.900276 23.4378464,39.2196822 L22.4762806,56.3084908 C22.4120906,57.4026797 23.2455974,58.3683111 24.3676382,58.4324288 L24.4639232,58.4324288 L53.4116767,58.4324288 C54.5016224,58.4324288 55.3993193,57.5315594 55.3993193,56.4370483 C55.4635092,56.4051506 55.4635092,56.3729306 55.4635092,56.3084908" id="Fill-27" fill="#E8E7E8"></path>
                        <path d="M77.967905,49.292729 L77.3908371,39.1231513 C77.2306831,36.4517966 75.3710995,34.1670811 72.774615,33.5233268 L70.8190674,33.0406722 L68.0300129,31.6568261 L67.1002211,34.3600785 C67.0363521,34.5211782 66.9079721,34.6175158 66.7157232,34.6175158 L63.8303837,34.6175158 C63.6702298,34.6175158 63.5100758,34.5211782 63.4458858,34.3600785 L62.516094,31.6568261 L59.7270395,33.0406722 L57.7714919,33.5233268 C55.8480393,34.0059814 54.3094056,35.3898276 53.5721837,37.2244306 C54.1171566,37.7715251 54.4695595,38.479397 54.5016545,39.2517089 L55.1750074,51.1592298 L76.2367014,51.1592298 C77.1985881,51.1592298 78,50.386918 78,49.3893888 C77.967905,49.3571689 77.967905,49.324949 77.967905,49.292729" id="Fill-29" fill="#B16E39"></path>
                        <g transform="translate(0.000000, 31.624703)">
                            <mask id="mask-2" fill="white">
                                <use xlink:href="#path-1"></use>
                            </mask>
                            <g id="Clip-32"></g>
                            <path d="M20.2001361,1.86650077 L18.2445885,1.38384616 L15.455534,0 L14.5260632,2.70325245 C14.4618732,2.86402992 14.3334933,2.96068972 14.1412443,2.96068972 L11.2562258,2.96068972 C11.0957509,2.96068972 10.9355969,2.86402992 10.8714069,2.70325245 L9.9416151,0 L7.15256065,1.38384616 L5.19733398,1.86650077 C2.6005285,2.51025505 0.741265843,4.79497055 0.580790903,7.46632527 L0.00372301861,17.635903 C-0.0601460075,18.6012122 0.677075867,19.4379639 1.6707367,19.5024038 L1.76702166,19.5024038 L22.8287156,19.5024038 L23.5020685,7.5948828 C23.5341635,6.82257099 23.8868874,6.08247911 24.4318603,5.56760457 C23.6622225,3.73300153 22.1235887,2.34915538 20.2001361,1.86650077" id="Fill-31" fill="#F27682" mask="url(#mask-2)"></path>
                        </g>
                        <path d="M26.4674528,29.1586535 C26.4674528,29.0942136 26.4353578,29.0619937 26.4353578,28.9975538 C26.4032628,28.9656561 26.4032628,28.9012162 26.3711678,28.8689963 C26.3390728,28.8367763 26.3069779,28.7723365 26.2752038,28.7401165 C25.9545749,28.4185616 25.473792,28.4185616 25.153163,28.7401165 C25.1210681,28.7723365 25.0889731,28.8045564 25.0568781,28.8689963 C25.0247831,28.9012162 24.9926881,28.9656561 24.9926881,28.9975538 C24.9605931,29.0297737 24.9605931,29.0942136 24.9605931,29.1586535 C24.9605931,29.2230934 24.9288191,29.2553133 24.9288191,29.3197532 C24.9288191,29.3838708 24.9288191,29.4160908 24.9605931,29.4805306 C24.9605931,29.5446483 24.9926881,29.5768682 24.9926881,29.6413081 C25.0247831,29.705748 25.0247831,29.7379679 25.0568781,29.7701878 C25.0889731,29.8024078 25.1210681,29.8668476 25.153163,29.8987454 C25.473792,30.1884026 25.9545749,30.1884026 26.2752038,29.8987454 C26.3069779,29.8668476 26.3390728,29.8343055 26.3711678,29.7701878 C26.4032628,29.7379679 26.4353578,29.673528 26.4353578,29.6413081 C26.4674528,29.5768682 26.4674528,29.5446483 26.4674528,29.4805306 C26.4674528,29.4160908 26.4674528,29.3838708 26.4995478,29.3197532 C26.4995478,29.2553133 26.4995478,29.2230934 26.4674528,29.1586535" id="Fill-33" fill="#FFCD2A"></path>
                        <path d="M52.7135786,28.3259293 C52.6814836,28.2292695 52.6493886,28.1329319 52.5851986,28.0362721 C52.5531036,28.0040522 52.5213296,27.9396123 52.4892346,27.9073924 C52.1686057,27.6177351 51.6878228,27.6177351 51.3671938,27.9073924 C51.3350988,27.9396123 51.3030038,27.9718322 51.2709089,28.0362721 C51.2388139,28.068492 51.2067189,28.1329319 51.2067189,28.1648296 C51.1749448,28.2292695 51.1749448,28.2614894 51.1749448,28.3259293 C51.1428499,28.4225891 51.1428499,28.5511466 51.1749448,28.6478064 C51.1749448,28.7119241 51.2067189,28.744144 51.2067189,28.8085839 C51.2388139,28.8408038 51.2388139,28.9052437 51.2709089,28.9374636 C51.3030038,28.9696836 51.3350988,29.0341234 51.3671938,29.0660212 C51.6878228,29.3878983 52.1686057,29.3878983 52.4892346,29.0660212 C52.5213296,29.0341234 52.5531036,29.0015813 52.5851986,28.9374636 C52.6172936,28.9052437 52.6493886,28.8408038 52.6493886,28.8085839 C52.6814836,28.776364 52.6814836,28.7119241 52.6814836,28.6478064 C52.7456736,28.5511466 52.7456736,28.4225891 52.7135786,28.3259293" id="Fill-35" fill="#53ABD3"></path>
                        <g transform="translate(51.942650, 0.000000)">
                            <mask id="mask-4" fill="white">
                                <use xlink:href="#path-3"></use>
                            </mask>
                            <g id="Clip-38"></g>
                            <path d="M4.95014523,2.45912201 C3.73181949,2.23390467 2.77025365,1.26827326 2.54590968,0.0455267665 C2.54590968,0.0133068327 2.51381469,-0.0189131012 2.48171971,0.0133068327 C2.44962472,0.0133068327 2.44962472,0.0455267665 2.44962472,0.0455267665 C2.22528075,1.26827326 1.26339396,2.23390467 0.0453891673,2.45912201 C0.0132941793,2.45912201 -0.0188008087,2.49134194 0.0132941793,2.52356188 C0.0132941793,2.55578181 0.0453891673,2.55578181 0.0453891673,2.55578181 C1.26339396,2.78099915 2.22528075,3.74630837 2.44962472,4.96937706 C2.44962472,5.00159699 2.48171971,5.03381692 2.51381469,5.00159699 C2.54590968,5.00159699 2.54590968,4.96937706 2.54590968,4.96937706 C2.77025365,3.74630837 3.73181949,2.78099915 4.95014523,2.55578181 C4.98224022,2.55578181 5.01433521,2.52356188 4.98224022,2.49134194 C4.98224022,2.49134194 4.98224022,2.45912201 4.95014523,2.45912201" id="Fill-37" fill="#E94547" mask="url(#mask-4)"></path>
                        </g>
                        <path d="M24.9126111,7.97056723 L24.3355432,7.97056723 L24.3355432,7.39125282 C24.3355432,6.94081815 23.9831403,6.58672107 23.5341314,6.58672107 C23.0854434,6.58672107 22.7327195,6.94081815 22.7327195,7.39125282 L22.7327195,7.97056723 L22.1556516,7.97056723 C21.7069637,7.97056723 21.3542398,8.32466431 21.3542398,8.77509898 C21.3542398,9.22585586 21.7069637,9.57963073 22.1556516,9.57963073 L22.7327195,9.57963073 L22.7327195,10.1589451 C22.7327195,10.6093798 23.0854434,10.9634769 23.5341314,10.9634769 C23.9831403,10.9634769 24.3355432,10.6093798 24.3355432,10.1589451 L24.3355432,9.57963073 L24.9126111,9.57963073 C25.361299,9.57963073 25.714023,9.22585586 25.714023,8.77509898 C25.714023,8.32466431 25.361299,7.97056723 24.9126111,7.97056723" id="Fill-39" fill="#74C16D"></path>
                        <path d="M39.562914,40.6999949 C39.370665,40.5069975 39.1142261,40.4425576 38.8256921,40.4747775 C38.7615021,40.4747775 38.7294072,40.5069975 38.6652172,40.5069975 C38.6010272,40.5392174 38.5692532,40.5392174 38.5371582,40.5714373 C38.5050632,40.6033351 38.4408732,40.635555 38.4087782,40.667775 C38.3766832,40.6999949 38.3445883,40.7322148 38.3124933,40.7966547 C38.2807192,40.8288746 38.2486242,40.8929923 38.2486242,40.9252122 C38.2165292,40.9896521 38.2165292,41.021872 38.2165292,41.0863119 C38.1844343,41.1826495 38.1844343,41.3115292 38.2165292,41.408189 C38.2165292,41.4723067 38.2486242,41.5045266 38.2486242,41.5689665 C38.2807192,41.6011864 38.2807192,41.6656263 38.3124933,41.697524 C38.3445883,41.729744 38.3766832,41.7941838 38.4087782,41.8264038 C38.4408732,41.8586237 38.4729682,41.8908436 38.5371582,41.9230636 C38.5692532,41.9552835 38.6334431,41.9871812 38.6652172,41.9871812 C38.7294072,42.0194012 38.7615021,42.0194012 38.8256921,42.0194012 C38.8898821,42.0194012 38.9216561,42.0516211 38.9858461,42.0516211 C39.434855,42.0516211 39.787258,41.697524 39.787258,41.2470894 C39.787258,41.054092 39.6912939,40.8288746 39.562914,40.6999949" id="Fill-41" fill="#211D1E"></path>
                        <path d="M39.562914,44.8515334 C39.370665,44.658536 39.1142261,44.5940961 38.8256921,44.626316 C38.7615021,44.626316 38.7294072,44.658536 38.6652172,44.658536 C38.6334431,44.6907559 38.5692532,44.6907559 38.5371582,44.7229758 C38.5050632,44.7548736 38.4408732,44.7870935 38.4087782,44.8193134 C38.3766832,44.8515334 38.3445883,44.8837533 38.3124933,44.9481932 C38.2807192,44.9804131 38.2486242,45.0445308 38.2486242,45.0767507 C38.2165292,45.1411906 38.2165292,45.1734105 38.2165292,45.2378504 C38.1844343,45.334188 38.1844343,45.4630677 38.2165292,45.5597275 C38.2165292,45.6238452 38.2486242,45.6560651 38.2486242,45.720505 C38.2807192,45.7527249 38.2807192,45.8171648 38.3124933,45.8490625 C38.3445883,45.8812824 38.3766832,45.9457223 38.4087782,45.9779422 C38.4408732,46.0101622 38.4729682,46.0423821 38.5371582,46.074602 C38.5692532,46.106822 38.6334431,46.1387197 38.6652172,46.1387197 C38.7294072,46.1709397 38.7615021,46.1709397 38.8256921,46.1709397 C38.8898821,46.1709397 38.9216561,46.1709397 38.9858461,46.2031596 C39.2101901,46.2031596 39.40276,46.106822 39.562914,45.9779422 C39.8514479,45.6560651 39.8514479,45.1734105 39.562914,44.8515334" id="Fill-43" fill="#211D1E"></path>
                        <path d="M39.562914,49.0031041 C39.370665,48.8101067 39.1142261,48.7456668 38.8256921,48.7778867 C38.7615021,48.7778867 38.7294072,48.8101067 38.6652172,48.8101067 C38.6010272,48.8423266 38.5692532,48.8423266 38.5371582,48.8745465 C38.5050632,48.9064443 38.4408732,48.9386642 38.4087782,48.9708841 C38.3766832,49.0031041 38.3445883,49.035324 38.3124933,49.0997639 C38.2807192,49.1319838 38.2486242,49.1961015 38.2486242,49.2283214 C38.2165292,49.2927613 38.2165292,49.3249812 38.2165292,49.3894211 C38.1844343,49.4857587 38.1844343,49.6146384 38.2165292,49.7112982 C38.2165292,49.7754159 38.2486242,49.8076358 38.2486242,49.8720757 C38.2807192,49.9042956 38.2807192,49.9687355 38.3124933,50.0006332 C38.3445883,50.0328531 38.3766832,50.097293 38.4087782,50.1295129 C38.4408732,50.1617329 38.4729682,50.1939528 38.5371582,50.2261727 C38.5692532,50.2583927 38.6334431,50.2902904 38.6652172,50.2902904 C38.7294072,50.3225103 38.7615021,50.3225103 38.8256921,50.3225103 C38.8898821,50.3225103 38.9216561,50.3225103 38.9858461,50.3547303 C39.2101901,50.3547303 39.40276,50.2583927 39.562914,50.1295129 C39.8514479,49.8398557 39.8514479,49.3249812 39.562914,49.0031041" id="Fill-45" fill="#211D1E"></path>
                        <path d="M39.562914,53.1546425 C39.370665,52.9616451 39.1142261,52.8972053 38.8256921,52.9294252 C38.7615021,52.9294252 38.7294072,52.9616451 38.6652172,52.9616451 C38.6010272,52.9935429 38.5692532,52.9935429 38.5371582,53.0257628 C38.5050632,53.0579827 38.4408732,53.0902027 38.4087782,53.1224226 C38.3766832,53.1546425 38.3445883,53.1868625 38.3124933,53.2513023 C38.2807192,53.2832001 38.2486242,53.3476399 38.2486242,53.3798599 C38.2165292,53.4442997 38.2165292,53.4765197 38.2165292,53.5406373 C38.1844343,53.6372971 38.1844343,53.7661769 38.2165292,53.8628367 C38.2165292,53.9269543 38.2486242,53.9591743 38.2486242,54.0236141 C38.2807192,54.0558341 38.2807192,54.1202739 38.3124933,54.1521717 C38.3445883,54.1843916 38.3766832,54.2488315 38.4087782,54.2810514 C38.4408732,54.3132714 38.4729682,54.3454913 38.5371582,54.3777112 C38.5692532,54.4099312 38.6334431,54.4418289 38.6652172,54.4418289 C38.7294072,54.4740488 38.7615021,54.4740488 38.8256921,54.4740488 L38.9858461,54.4740488 C39.434855,54.4740488 39.787258,54.1202739 39.787258,53.6695171 C39.787258,53.5087396 39.6912939,53.3157422 39.562914,53.1546425" id="Fill-47" fill="#211D1E"></path>
                        <path d="M69.4726826,40.5713085 L67.0684471,40.5713085 C66.6194382,40.5713085 66.2667143,40.9254055 66.2667143,41.3758402 C66.2667143,41.8265971 66.6194382,42.180372 67.0684471,42.180372 L69.4726826,42.180372 C69.9213706,42.180372 70.2740945,41.8265971 70.2740945,41.3758402 C70.2740945,40.9254055 69.8892756,40.5713085 69.4726826,40.5713085" id="Fill-49" fill="#211D1E"></path>
                        <line x1="30.4736134" y1="45.4958676" x2="30.4736134" y2="58.2401402" id="Stroke-51" stroke="#000000" stroke-width="0.76352"></line>
                        <line x1="48.3787974" y1="45.4958676" x2="48.3787974" y2="58.2401402" id="Stroke-53" stroke="#000000" stroke-width="0.76352"></line>
                        <line x1="6.23538217" y1="42.1643909" x2="6.23538217" y2="51.1112221" id="Stroke-55" stroke="#000000" stroke-width="0.76352"></line>
                        <line x1="19.1852605" y1="42.1643909" x2="19.1852605" y2="51.1112221" id="Stroke-57" stroke="#000000" stroke-width="0.76352"></line>
                        <line x1="58.7509668" y1="42.1643909" x2="58.7509668" y2="51.1112221" id="Stroke-59" stroke="#000000" stroke-width="0.76352"></line>
                        <line x1="71.7008451" y1="42.1643909" x2="71.7008451" y2="51.1112221" id="Stroke-61" stroke="#000000" stroke-width="0.76352"></line>
                    </g>
                    <g id="编组" transform="translate(51.356153, 48.070208)">
                        <mask id="mask-6" fill="white">
                            <use xlink:href="#path-5"></use>
                        </mask>
                        <g id="Clip-64"></g>
                        <path d="M0,7.42379496 C0,11.5234593 3.31091896,14.8472677 7.39500618,14.8472677 L7.39500618,14.8472677 C11.4790934,14.8472677 14.7900124,11.5234593 14.7900124,7.42379496 L14.7900124,7.42379496 C14.7900124,3.32380837 11.4790934,0 7.39500618,0 L7.39500618,0 C3.31091896,0 0,3.32380837 0,7.42379496" id="Fill-63" fill="url(#linearGradient-7)" mask="url(#mask-6)"></path>
                    </g>
                    <text id="+" font-family="MyriadPro-Bold, Myriad Pro" font-size="16.349504" font-weight="bold" fill="#FFFFFF">
                        <tspan x="53.8640234" y="59.9312707">+</tspan>
                    </text>
                </g>
            </g>
        </g>
    </g>
</svg>